<?xml version="1.0" encoding="UTF-8"?>
<svg width="2371px" height="1430px" viewBox="0 0 2371 1430" version="1.1" xmlns="http://www.w3.org/2000/svg" xmlns:xlink="http://www.w3.org/1999/xlink">
    <!-- Generator: Sketch 52.5 (67469) - http://www.bohemiancoding.com/sketch -->
    <title>bot-sdk</title>
    <desc>Created with Sketch.</desc>
    <defs>
        <ellipse id="path-1" cx="160.902574" cy="15.4837545" rx="15.4834559" ry="15.4837545"></ellipse>
        <ellipse id="path-2" cx="43.4466912" cy="207.851986" rx="43.4466912" ry="43.4476534"></ellipse>
        <ellipse id="path-3" cx="282.553309" cy="207.851986" rx="43.4466912" ry="43.4476534"></ellipse>
        <path d="M346.06616,182.102105 C352.879942,189.674635 363.68739,201.549464 378.506467,217.726595 C393.319557,233.909725 407.168658,246.084576 420.053771,254.245146 C432.944871,262.411717 445.901834,267.60808 458.942622,269.834236 C471.971435,272.060391 472.34266,271.100324 460.05031,266.936033 C447.751973,262.783743 434.202247,255.661245 419.389158,245.556539 C404.570081,235.475835 391.684968,221.890886 380.727832,204.813692 C369.764709,187.7425 363.621528,170.227276 362.286314,152.26202 C360.9511,134.296765 357.023296,122.649951 350.50889,117.297577 C343.988496,111.669184 336.659788,109.809054 328.510793,111.735189 C320.361797,113.673324 314.661692,116.565526 311.404488,120.423796 C308.141298,124.282065 305.548708,130.22248 303.626718,138.23304 C301.698741,146.2496 304.219481,153.000072 311.182951,158.496456 C318.140433,163.99284 322.583162,166.963048 324.511139,167.401078 C326.439116,167.85111 328.804181,168.517156 331.624296,169.405218 C334.438424,170.299281 339.246391,174.523576 346.06616,182.102105" id="path-4"></path>
    </defs>
    <g id="bot-sdk" stroke="none" stroke-width="1" fill="none" fill-rule="evenodd">
        <g id="Group-5" transform="translate(218.000000, 267.000000)">
            <path d="M0.5,531 L143.5,531 C164.83344,531 182.666595,533.66664 197,539 C211.333405,544.33336 222.83329,551.33329 231.5,560 C240.16671,568.66671 246.416648,578.583278 250.25,589.75 C254.083352,600.916722 256,612.16661 256,623.5 C256,633.166715 254.33335,642.33329 251,651 C247.66665,659.66671 242.916697,667.3333 236.75,674 C230.583303,680.6667 223.250043,686.249977 214.75,690.75 C206.249957,695.250022 196.833385,698.16666 186.5,699.5 L187.5,700.5 C189.833345,700.166665 195.33329,701.166655 204,703.5 C212.66671,705.833345 221.749953,710.249968 231.25,716.75 C240.750047,723.250032 249.249962,732.249942 256.75,743.75 C264.250038,755.250058 268,769.99991 268,788 C268,804.333415 265.00003,818.666605 259,831 C252.99997,843.333395 244.583388,853.749957 233.75,862.25 C222.916612,870.750043 209.83341,877.166645 194.5,881.5 C179.16659,885.833355 162.16676,888 143.5,888 L0.5,888 L0.5,531 Z M143.5,693 C173.833485,693 196.499925,686.250068 211.5,672.75 C226.500075,659.249932 234,641.50011 234,619.5 C234,606.499935 231.500025,595.583377 226.5,586.75 C221.499975,577.916623 214.833375,570.750027 206.5,565.25 C198.166625,559.749973 188.583388,555.833345 177.75,553.5 C166.916613,551.166655 155.50006,550 143.5,550 L22.5,550 L22.5,693 L143.5,693 Z M143.5,869 C175.50016,869 200.583242,862.250068 218.75,848.75 C236.916758,835.249932 246,815.000135 246,788 C246,772.66659 242.833365,760.083382 236.5,750.25 C230.166635,740.416618 222.083382,732.666695 212.25,727 C202.416618,721.333305 191.416727,717.416677 179.25,715.25 C167.083273,713.083323 155.166725,712 143.5,712 L22.5,712 L22.5,869 L143.5,869 Z M823.5,647.5 L767.5,647.5 L767.5,827 C767.5,837.333385 768.666655,845.49997 771,851.5 C773.333345,857.50003 776.916643,862.083318 781.75,865.25 C786.583358,868.416682 792.416632,870.33333 799.25,871 C806.083368,871.66667 813.999955,871.833335 823,871.5 L823,888 C813.333285,888.66667 803.916712,888.583337 794.75,887.75 C785.583288,886.916663 777.500035,884.416687 770.5,880.25 C763.499965,876.083312 757.916687,869.833375 753.75,861.5 C749.583313,853.166625 747.83333,841.66674 748.5,827 L748.5,647.5 L701,647.5 L701,631 L748.5,631 L748.5,551 L767.5,551 L767.5,631 L823.5,631 L823.5,647.5 Z M1234,633 C1233.33333,617.66659 1230.08336,604.33339 1224.25,593 C1218.41664,581.66661 1210.50005,572.166705 1200.5,564.5 C1190.49995,556.833295 1178.5834,551.083353 1164.75,547.25 C1150.9166,543.416647 1135.83342,541.5 1119.5,541.5 C1109.49995,541.5 1098.75006,542.666655 1087.25,545 C1075.74994,547.333345 1065.08338,551.416637 1055.25,557.25 C1045.41662,563.083363 1037.33336,570.916618 1031,580.75 C1024.66664,590.583382 1021.5,602.83326 1021.5,617.5 C1021.5,631.833405 1024.99996,643.499955 1032,652.5 C1039.00004,661.500045 1048.16661,668.749973 1059.5,674.25 C1070.83339,679.750027 1083.83326,684.16665 1098.5,687.5 C1113.16674,690.83335 1127.99993,693.999985 1143,697 C1158.33341,700.000015 1173.24993,703.583313 1187.75,707.75 C1202.25007,711.916688 1215.24994,717.583298 1226.75,724.75 C1238.25006,731.916702 1247.49996,741.249942 1254.5,752.75 C1261.50004,764.250058 1265,778.66658 1265,796 C1265,814.66676 1261.00004,830.33327 1253,843 C1244.99996,855.66673 1234.91673,865.99996 1222.75,874 C1210.58327,882.00004 1197.08341,887.749982 1182.25,891.25 C1167.41659,894.750018 1153.16674,896.5 1139.5,896.5 C1118.49989,896.5 1098.83343,894.250023 1080.5,889.75 C1062.16657,885.249977 1046.16674,877.916718 1032.5,867.75 C1018.83326,857.583282 1008.08337,844.50008 1000.25,828.5 C992.416628,812.49992 988.666665,793.000115 989,770 L1011,770 C1009.99999,789.666765 1012.8333,806.249932 1019.5,819.75 C1026.1667,833.250068 1035.41661,844.33329 1047.25,853 C1059.08339,861.66671 1072.99992,867.916647 1089,871.75 C1105.00008,875.583353 1121.83325,877.5 1139.5,877.5 C1150.16672,877.5 1161.58327,876.16668 1173.75,873.5 C1185.91673,870.83332 1197.08328,866.333365 1207.25,860 C1217.41672,853.666635 1225.91663,845.333385 1232.75,835 C1239.58337,824.666615 1243,811.666745 1243,796 C1243,780.999925 1239.50004,768.750047 1232.5,759.25 C1225.49996,749.749952 1216.25006,742.083363 1204.75,736.25 C1193.24994,730.416637 1180.25007,725.750018 1165.75,722.25 C1151.24993,718.749982 1136.33341,715.500015 1121,712.5 C1105.99993,709.499985 1091.16674,706.00002 1076.5,702 C1061.83326,697.99998 1048.83339,692.583368 1037.5,685.75 C1026.16661,678.916632 1017.00004,670.083387 1010,659.25 C1002.99996,648.416613 999.5,634.500085 999.5,617.5 C999.5,600.499915 1003.0833,585.916727 1010.25,573.75 C1017.4167,561.583273 1026.74994,551.750037 1038.25,544.25 C1049.75006,536.749963 1062.6666,531.250018 1077,527.75 C1091.3334,524.249982 1105.49993,522.5 1119.5,522.5 C1138.16676,522.5 1155.58325,524.583312 1171.75,528.75 C1187.91675,532.916688 1202.08327,539.416623 1214.25,548.25 C1226.41673,557.083378 1236.16663,568.49993 1243.5,582.5 C1250.83337,596.50007 1255,613.333235 1256,633 L1234,633 Z M1316,531 L1433,531 C1465.00016,531 1491.58323,535.99995 1512.75,546 C1533.91677,556.00005 1550.83327,569.33325 1563.5,586 C1576.16673,602.66675 1585.08331,621.66656 1590.25,643 C1595.41669,664.33344 1598,686.33322 1598,709 C1598,734.33346 1594.75003,757.916557 1588.25,779.75 C1581.74997,801.583443 1571.66674,820.49992 1558,836.5 C1544.33326,852.50008 1527.08344,865.083287 1506.25,874.25 C1485.41656,883.416713 1460.66681,888 1432,888 L1316,888 L1316,531 Z M1434,869 C1450.66675,869 1467.41658,866.416692 1484.25,861.25 C1501.08342,856.083308 1516.33326,847.416727 1530,835.25 C1543.66673,823.083273 1554.74996,806.750103 1563.25,786.25 C1571.75004,765.749897 1576,740.000155 1576,709 C1576,684.666545 1573.58336,663.83342 1568.75,646.5 C1563.91664,629.16658 1557.58337,614.583392 1549.75,602.75 C1541.91663,590.916608 1532.91672,581.583368 1522.75,574.75 C1512.58328,567.916632 1502.08339,562.666685 1491.25,559 C1480.41661,555.333315 1469.58339,552.916673 1458.75,551.75 C1447.91661,550.583327 1438.16671,550 1429.5,550 L1338,550 L1338,869 L1434,869 Z M1649.5,531 L1671.5,531 L1671.5,736.5 L1896,531 L1924.5,531 L1761.5,679.5 L1934.5,888 L1907,888 L1745.5,694.5 L1671.5,762 L1671.5,888 L1649.5,888 L1649.5,531 Z" id="B-t-SDK" fill="#4C4C4C"></path>
            <g id="Group-4" transform="translate(317.000000, 540.000000)">
                <path d="M174.694853,48.5660822 C232.771295,54.7536439 279.562171,99.5929049 288.292362,157.223994 C313.727741,160.075511 333.5,181.654704 333.5,207.851986 C333.5,233.545379 314.48104,254.796627 289.753676,258.294751 L289.753676,286 C289.753676,316.651804 264.90548,341.5 234.253676,341.5 L87.5514706,341.5 C56.899667,341.5 32.0514706,316.651804 32.0514706,286 L32.0514706,257.520605 C9.2797306,252.324275 -7.5,231.93734 -7.5,207.851986 C-7.5,183.267451 9.97311364,162.56836 33.4133399,157.892032 C41.9122854,99.7274554 89.1448057,54.4677983 147.709559,48.5037102 L147.709559,31.8038953 C142.880329,27.8985108 139.919118,21.9583973 139.919118,15.4837545 C139.919118,3.89478409 149.313694,-5.5 160.902574,-5.5 C172.491453,-5.5 181.886029,3.89478409 181.886029,15.4837545 C181.886029,21.6748602 179.178143,27.3900044 174.694855,31.3000663 L174.694853,48.5660822 Z" id="Combined-Shape" stroke="#4C4C4C" stroke-width="15" fill="#EEEEEE"></path>
                <g id="Group-3">
                    <rect id="Rectangle" fill="#EEEEEE" x="155.209559" y="15.1841155" width="11.9852941" height="59.9277978"></rect>
                    <ellipse id="Oval" stroke="#EEEEEE" stroke-width="4.2" fill="#FAFAFA" cx="160.902574" cy="15.4837545" rx="13.4834559" ry="13.4837545"></ellipse>
                    <ellipse id="Oval" fill="#EEEEEE" cx="43.4466912" cy="207.851986" rx="43.4466912" ry="43.4476534"></ellipse>
                    <ellipse id="Oval" fill="#EEEEEE" cx="282.553309" cy="207.851986" rx="43.4466912" ry="43.4476534"></ellipse>
                    <path d="M41.6514706,166.313435 L41.6514706,286 C41.6514706,311.34987 62.2016006,331.9 87.5514706,331.9 L234.253676,331.9 C259.603546,331.9 280.153676,311.34987 280.153676,286 L280.153676,166.313435 L279.723728,166.313435 L279.531057,164.426785 C273.350124,103.902627 222.198914,57.4357401 160.902574,57.4357401 C99.6062332,57.4357401 48.4550231,103.902627 42.2740901,164.426785 L42.081419,166.313435 L41.6514706,166.313435 Z" id="Combined-Shape" stroke="#EEEEEE" stroke-width="4.2" fill="#FAFAFA"></path>
                    <rect id="Rectangle" fill="#EEEEEE" x="155.209559" y="15.1841155" width="11.9852941" height="59.9277978"></rect>
                    <g id="Oval">
                        <use fill="#EA6609" xlink:href="#path-1"></use>
                        <use fill="#F69A5D" xlink:href="#path-1"></use>
                    </g>
                    <g id="Oval">
                        <use fill="#EA6609" xlink:href="#path-2"></use>
                        <use fill="#F69A5D" xlink:href="#path-2"></use>
                    </g>
                    <g id="Oval">
                        <use fill="#EA6609" xlink:href="#path-3"></use>
                        <use fill="#F69A5D" xlink:href="#path-3"></use>
                    </g>
                    <path d="M40.6777739,164 C47.1253139,102.55754 98.7902624,55 162,55 C224.274718,55 275.878909,102.55754 282.3225,164 L283,164 L283,286 C283,312.509668 261.509668,334 235,334 L88,334 C61.490332,334 40,312.509668 40,286 L40,164 L40.6777739,164 Z" id="Combined-Shape" fill="#FAFAFA"></path>
                    <path d="M160.902574,92.1913357 C196.658701,102.010174 214.536765,102.010174 214.536765,92.1913357 C214.536765,77.4630778 190.523919,65.5234657 160.902574,65.5234657 C131.281228,65.5234657 107.268382,77.4630778 107.268382,92.1913357 C107.268382,102.010174 125.146446,102.010174 160.902574,92.1913357 Z" id="Oval" fill="#DADADA"></path>
                    <g id="Group" transform="translate(69.000000, 195.000000)">
                        <circle id="Oval" stroke="#FFFFFF" stroke-width="3.6" fill="#FFFFFF" cx="26" cy="26" r="27.8"></circle>
                        <circle id="Oval" stroke="#FFFFFF" stroke-width="3.6" fill="#FFFFFF" cx="157" cy="26.3935018" r="27.8"></circle>
                        <circle id="Oval" fill="#4C4C4C" cx="26" cy="26" r="20"></circle>
                        <circle id="Oval" fill="#A5A5A5" cx="27" cy="15" r="9"></circle>
                        <circle id="Oval" fill="#4C4C4C" cx="157" cy="26.3935018" r="20"></circle>
                        <circle id="Oval" fill="#A5A5A5" cx="157" cy="15.3935018" r="9"></circle>
                    </g>
                    <g id="Group-2" transform="translate(132.000000, 248.000000)" fill="#4C4C4C">
                        <path d="M30.0002104,30 C46.5687529,30 60.0002104,16.5685425 60.0002104,0 C60.0002104,0 -0.0917013494,1.4717394e-13 0,0 C0.000210415325,16.5685425 13.4316679,30 30.0002104,30 Z" id="Oval"></path>
                    </g>
                </g>
            </g>
            <g id="Group-52" transform="translate(248.000000, 0.000000)">
                <path d="M632.397272,387.458522 C628.088194,406.742649 622.5188,419.271037 615.695092,425.049681 C608.859381,430.828326 603.590062,433.280053 599.881134,432.392876 C596.166204,431.505698 592.601312,428.238726 589.192459,422.603948 C585.771603,416.969171 585.027416,407.180243 586.965902,393.24316 C588.892384,379.306077 594.761853,366.100317 604.556304,353.643862 C614.356757,341.187407 622.5188,338.963468 629.054436,346.972045 C635.58407,354.686895 636.700349,368.180389 632.397272,387.458522 M1422.57905,407.70176 C1410.84611,418.533721 1400.97364,424.606093 1392.96163,425.936859 C1384.94363,427.279615 1378.63005,426.386443 1374.02689,423.275326 C1369.42374,420.158215 1365.63679,414.44551 1362.67205,406.143204 C1359.70131,397.834905 1359.47325,389.238872 1361.99988,380.343116 C1364.52051,371.435372 1366.74707,365.734656 1368.68556,363.210995 C1370.61204,360.693328 1371.27821,357.276495 1370.69006,352.978478 C1370.08991,348.680462 1367.71331,343.567201 1363.56027,337.626707 C1359.40123,331.698201 1354.43199,327.621979 1348.64054,325.392046 C1342.84909,323.168107 1329.03963,327.106457 1307.21217,337.183118 C1285.39071,347.271767 1267.27217,357.132628 1252.87457,366.7657 C1238.46496,376.404766 1227.77629,383.5981 1220.80254,388.345699 C1213.8228,393.087305 1210.92407,393.614816 1212.11837,389.904255 C1213.30067,386.199688 1219.53623,377.669594 1230.82505,364.319967 C1242.10788,350.976334 1253.09663,340.006501 1263.7853,331.398479 C1274.47398,322.802446 1283.45222,316.496291 1290.73205,312.492002 C1298.00587,308.487713 1305.35771,304.561352 1312.78156,300.70093 C1320.19942,296.852497 1327.32921,298.177269 1334.16492,304.699225 C1340.98862,311.233169 1348.64054,312.56993 1357.10266,308.709508 C1365.56478,304.861075 1367.56928,297.296086 1363.11616,286.014542 C1358.66305,274.750981 1353.98188,267.185992 1349.08465,263.331565 C1344.18743,259.477137 1337.65179,256.953476 1329.48375,255.766576 C1321.3157,254.585671 1313.81982,254.873404 1306.99012,256.659748 C1300.16041,258.733826 1288.1334,264.440537 1270.91509,273.785876 C1253.68477,283.131214 1237.4267,294.472703 1222.14088,307.82233 C1206.84305,321.165963 1190.95707,338.29209 1174.47695,359.206706 C1157.99682,380.115327 1148.49645,394.064399 1145.96981,401.029943 C1145.63373,401.959082 1145.39367,402.90021 1145.1116,403.829349 C1138.54596,408.576949 1130.47994,412.119665 1120.80552,414.373576 C1107.44017,417.490687 1098.01181,416.081993 1092.52044,410.147493 C1087.02306,404.218988 1083.23611,397.39731 1081.15959,389.68246 C1079.08307,381.973605 1079.22711,370.482256 1081.60971,355.202417 C1083.9803,339.928573 1084.7965,325.326107 1084.05832,311.38303 C1083.31413,297.439953 1081.23161,287.800886 1077.82276,282.459836 C1074.4019,277.124781 1069.64871,272.748837 1063.56919,269.332004 C1057.47767,265.933154 1050.71997,264.89012 1043.30212,266.220887 C1035.87226,267.557648 1029.12057,269.553798 1023.03504,272.22732 C1016.94352,274.900842 1010.18583,279.126925 1002.76797,284.911564 C995.344114,290.684214 988.586423,296.33098 982.500899,301.815897 C976.409375,307.306808 970.251834,313.457108 964.016273,320.278785 C957.780712,327.106457 958.368859,317.904985 965.798719,292.692353 C973.216576,267.47972 989.252589,224.847233 1013.90076,164.782902 C1038.54893,104.724565 1057.69972,65.3470606 1071.36514,46.6623779 C1085.01856,27.9776953 1086.95104,14.9277902 1077.15059,7.51266264 C1067.35614,0.103529569 1054.72898,-1.82668148 1039.29311,1.72802396 C1028.60444,16.5642734 1021.32462,30.051773 1017.46565,42.2145003 C1013.60668,54.3832221 1000.24134,88.6354765 977.375617,144.989247 C954.509894,201.343017 934.170803,259.033548 916.352343,318.054846 C908.892476,342.775934 903.017005,363.031161 898.677919,378.928427 C888.721427,386.409494 879.431102,392.589766 870.920972,397.241455 C858.449851,404.069127 847.53912,408.966588 838.182778,411.921849 C828.826436,414.895093 818.065743,416.747376 805.888695,417.490687 C793.711648,418.233998 781.684637,413.708193 769.807665,403.919266 C757.930692,394.130338 754.221764,379.671739 758.674878,360.543467 C763.127993,341.409201 772.778408,326.878668 787.626124,316.933885 C802.473841,307.007086 820.142263,301.594102 840.631391,300.70093 C861.120519,299.813752 871.437101,293.735386 871.587139,282.459836 C871.737177,271.190281 866.611894,262.738115 856.223294,257.103337 C845.828692,251.46856 826.227786,254.285948 797.426577,265.555504 C778.143751,273.510131 762.941946,281.656581 751.647119,289.976869 C749.726639,289.916925 747.392054,289.856981 744.643366,289.803031 C722.52183,289.359442 704.037203,289.287508 689.189487,289.581236 C674.335769,289.880958 665.057447,286.985642 661.348519,280.907275 C657.633589,274.828909 653.108456,270.602826 647.767119,268.223031 C642.419781,265.855226 635.66209,265.411637 627.500047,266.88627 C619.326001,268.378887 612.424273,271.777737 606.782861,277.124781 C602.347751,281.308903 596.616317,287.76492 589.726592,296.235069 C577.72959,297.751664 568.523286,297.997436 562.245714,296.918436 C552.739335,295.293942 545.315477,291.805175 539.97414,286.464125 C534.626802,281.123075 530.173687,276.747131 526.608795,273.342287 C523.043903,269.931448 518.884862,268.157092 514.137673,268.001237 C509.384484,267.85737 505.37548,269.110209 502.110663,271.777737 C498.839845,274.163526 495.875103,276.747131 493.204434,279.570514 C490.527764,282.393898 477.612532,299.520025 454.452735,330.948896 C431.286937,362.39575 417.47748,379.599805 413.024366,382.567055 C408.571251,385.528311 405.600508,383.088572 404.118137,375.223861 C402.629764,367.365145 399.21491,355.801862 393.873573,340.516029 C388.526234,325.248179 382.884822,314.050558 376.949337,306.929158 C371.001848,299.813752 363.878065,296.852497 355.565985,298.027408 C347.247903,299.220302 341.090362,303.374452 337.081358,310.489858 C333.072355,317.611257 334.854801,328.287363 342.428697,342.524168 C349.996591,356.760973 356.454207,371.591228 361.801545,387.014933 C367.148884,402.432643 370.113626,414.895093 370.707775,424.384298 C371.301923,433.879498 373.384444,442.181803 376.949337,449.297208 C380.508227,456.418608 386.149639,461.753664 393.873573,465.314363 C401.591504,468.869069 408.715287,468.281613 415.250923,463.534013 C421.780557,458.792408 427.127896,452.857908 431.286937,445.742503 C435.445978,438.621103 444.052132,425.27747 457.123403,405.699615 C470.188673,386.121761 481.765571,370.104606 491.866099,357.64815 C501.960626,345.185701 510.944874,334.959179 518.812844,326.950602 C526.680813,318.93603 538.113674,313.157385 553.111428,309.596685 C562.359743,307.408713 573.108433,304.759169 585.351497,301.660041 C576.481277,312.89363 571.373999,319.247741 570.035664,320.722374 C568.703331,322.208996 569.369497,322.580652 572.040166,321.837341 C574.716836,321.100024 572.778351,326.141352 566.254718,336.961323 C559.719082,347.78729 554.893874,358.169667 551.773093,368.102461 C548.658314,378.047244 546.875867,391.169083 546.431756,407.479965 C545.987645,423.790848 547.319979,435.216259 550.44076,441.738214 C553.555539,448.266164 557.71458,454.56033 562.911881,460.644691 C568.10318,466.729052 574.860872,471.170935 583.178954,473.994319 C591.491034,476.811707 599.214967,476.661846 606.33875,473.538741 C613.468535,470.433619 621.264486,465.763947 629.726604,459.529725 C638.188722,453.301497 645.312505,446.557747 651.103955,439.286487 C656.895404,432.027215 661.276501,425.127609 664.247244,418.593665 C667.211986,412.07171 669.438543,405.849477 670.926916,399.908982 C672.409287,393.986471 673.297509,384.940855 673.597584,372.778128 C673.891658,360.6154 673.81964,349.573634 673.375529,339.628851 C672.931418,329.696057 672.331267,320.278785 671.593083,311.38303 C670.848896,302.475286 672.631343,297.218158 676.940421,295.581675 C681.243498,293.95718 699.133976,292.692353 730.611854,291.805175 C739.02596,291.565397 745.459571,291.343603 750.044718,291.139792 C745.999706,294.22693 742.470823,297.338047 739.524085,300.479136 C728.23526,312.492002 719.84516,324.726663 714.353785,337.183118 C708.856409,349.639573 706.041705,364.919411 705.891667,383.00465 C705.74163,401.101877 711.97719,416.747376 724.598349,429.947142 C737.219508,443.146909 750.578852,450.190381 764.688383,451.077558 C778.791913,451.964736 790.890942,451.377281 800.99147,449.297208 C811.079995,447.229125 821.324559,443.590497 831.725162,438.399309 C842.113762,433.20812 853.996736,425.049681 867.35608,413.923993 C876.30432,406.478893 885.966738,397.77496 896.24131,388.010011 C891.836207,404.782465 889.627654,415.36266 889.627654,419.714626 C889.627654,428.46052 891.704174,435.216259 895.863215,439.95187 C900.022256,444.705464 905.813705,448.116303 913.237564,450.190381 C920.65542,452.264458 926.890981,446.707608 931.944246,433.507842 C936.991509,420.308076 944.709441,404.218988 955.104042,385.234583 C965.498644,366.256172 980.862489,349.195984 1001.20758,334.072001 C1021.54667,318.93603 1034.16783,313.678902 1039.07106,318.276641 C1043.96828,322.880374 1045.67271,337.183118 1044.19034,361.20885 C1042.70197,385.234583 1043.30212,402.960154 1045.97279,414.373576 C1048.64345,425.798987 1053.69072,434.544881 1061.12058,440.623248 C1068.53843,446.707608 1075.81826,449.674858 1082.94204,449.519003 C1090.07182,449.375136 1099.27213,446.707608 1110.56095,441.51642 C1121.84378,436.325231 1131.41617,430.246865 1139.29014,423.275326 C1140.61647,422.100415 1141.79877,420.859565 1143.01107,419.636698 C1143.04108,420.326059 1143.01707,421.027409 1143.07709,421.71677 C1143.67124,428.538448 1145.82578,434.838609 1149.53471,440.623248 C1153.24363,446.407886 1156.65849,449.740797 1159.77927,450.633969 C1162.90005,451.527142 1169.80178,450.562036 1180.49045,447.744647 C1191.17913,444.921264 1203.27816,439.885931 1216.79354,432.61467 C1230.30292,425.349404 1244.85656,416.081993 1260.44247,404.806443 C1276.03437,393.542883 1286.9451,386.643277 1293.18666,384.119616 C1299.42222,381.60195 1304.69154,382.567055 1308.99462,387.014933 C1313.29769,391.46281 1316.04638,395.545027 1317.23468,399.249593 C1318.42298,402.960154 1320.72155,408.666865 1324.14241,416.369726 C1327.55126,424.084576 1332.22643,430.606531 1338.17392,435.953576 C1344.10941,441.288631 1350.42299,445.220986 1357.10266,447.744647 C1363.78233,450.268308 1369.20169,451.599075 1373.36073,451.748936 C1377.51377,451.898797 1383.30522,449.812731 1390.72907,445.520709 C1398.15293,441.222692 1408.24746,431.134042 1421.01866,415.266748 C1433.78385,399.399455 1434.30598,396.875794 1422.57905,407.70176" id="Fill-6" fill="#F69A5D"></path>
                <path d="M301.8844,253.2838 C293.4244,250.9078 285.9244,250.4578 279.3964,251.9458 C273.1624,253.4338 264.9244,257.7358 254.6824,264.8638 C244.4404,271.9858 242.2144,275.7718 248.0044,276.2098 C252.8104,276.5878 253.5064,283.4578 250.2304,296.6338 C240.8764,297.5638 233.4844,297.6118 228.1864,296.6998 C218.6824,295.0738 211.2604,291.5818 205.9204,286.2358 C200.5744,280.8898 196.1224,276.5098 192.5584,273.1018 C189.0004,269.6818 184.8364,267.9118 180.0904,267.7558 C175.3384,267.6118 171.3304,268.8658 168.0664,271.5358 C164.7964,273.9178 161.8324,276.5098 159.1624,279.3358 C156.4924,282.1558 143.5744,299.3038 120.4204,330.7618 C97.2604,362.2378 83.4604,379.4578 79.0084,382.4218 C74.5504,385.3918 71.5804,382.9438 70.0984,375.0778 C68.6104,367.2118 65.2024,355.6378 59.8564,340.3378 C54.5104,325.0558 48.8704,313.8478 42.9364,306.7198 C36.9964,299.5978 29.8684,296.6338 21.5584,297.8098 C13.2484,299.0038 7.0864,303.1618 3.0784,310.2838 C-0.9296,317.4118 0.8524,328.0978 8.4244,342.3478 C15.9964,356.5978 22.4524,371.4358 27.7924,386.8798 C33.1384,402.3118 36.1024,414.7858 36.7024,424.2838 C37.2904,433.7878 39.3724,442.0978 42.9364,449.2198 C46.5004,456.3478 52.1344,461.6818 59.8564,465.2518 C67.5724,468.8098 74.7004,468.2218 81.2344,463.4698 C87.7564,458.7238 93.1024,452.7838 97.2604,445.6618 C101.4184,438.5338 110.0224,425.1718 123.0904,405.5818 C136.1524,385.9858 147.7324,369.9538 157.8244,357.4858 C167.9164,345.0118 176.8984,334.7758 184.7644,326.7598 C192.6304,318.7378 204.0604,312.9538 219.0544,309.3898 C227.6464,307.3558 237.5704,304.9078 248.7424,302.0878 C248.4244,303.1858 248.1484,304.2118 247.7764,305.3878 C241.8364,324.3898 235.5304,346.7278 228.8524,372.4078 C222.1744,398.0878 217.7884,417.1558 215.7184,429.6298 C213.6364,442.0978 213.8584,448.9978 216.3844,450.3358 C218.9044,451.6678 223.4344,451.8898 229.9684,451.0018 C236.4964,450.1138 243.3244,444.2518 250.4524,433.4098 C257.5744,422.5798 264.0304,409.7338 269.8204,394.8898 C275.6104,380.0518 281.7664,360.7558 288.3004,337.0018 C294.8284,313.2538 300.8404,293.9578 306.3364,279.1138 C311.8264,264.2638 310.3444,255.6598 301.8844,253.2838" id="Fill-3" fill="#F69A5D"></path>
                <g id="Fill-1">
                    <use fill="#F37928" xlink:href="#path-4"></use>
                    <use fill-opacity="0.25" fill="#FFFFFF" xlink:href="#path-4"></use>
                </g>
            </g>
        </g>
    </g>
</svg>