<?xml version="1.0" encoding="UTF-8"?>
<svg width="2162px" height="1033px" viewBox="0 0 2162 1033" version="1.1" xmlns="http://www.w3.org/2000/svg" xmlns:xlink="http://www.w3.org/1999/xlink">
    <!-- Generator: Sketch 52.5 (67469) - http://www.bohemiancoding.com/sketch -->
    <title>bot-sdk</title>
    <desc>Created with Sketch.</desc>
    <defs>
        <ellipse id="path-1" cx="180.645221" cy="17.3844549" rx="17.3832664" ry="17.3844549"></ellipse>
        <ellipse id="path-2" cx="48.7775735" cy="233.36675" rx="48.7775735" ry="48.781048"></ellipse>
        <ellipse id="path-3" cx="317.222426" cy="233.36675" rx="48.7775735" ry="48.781048"></ellipse>
        <path d="M249.872729,131.104638 C254.757308,136.547394 262.504816,145.082427 273.12813,156.70974 C283.747152,168.341365 293.675122,177.092039 302.912041,182.957449 C312.153251,188.827172 321.441676,192.562058 330.790193,194.162107 C340.130125,195.762156 340.396244,195.072108 331.584259,192.079024 C322.767981,189.094565 313.054623,183.97527 302.435601,176.712513 C291.812287,169.467006 282.575369,159.702824 274.720554,147.428591 C266.861448,135.158672 262.457601,122.569604 261.50043,109.657077 C260.543258,96.7445499 257.727544,88.3734025 253.057578,84.5263837 C248.383319,80.480976 243.129607,79.1440076 237.287858,80.5284168 C231.446108,81.9214516 227.359887,84.0002219 225.024904,86.7733532 C222.685629,89.5464844 220.827086,93.8161578 219.449274,99.5737476 C218.06717,105.33565 219.874207,110.187552 224.866091,114.138078 C229.853684,118.088604 233.038532,120.22344 234.420636,120.538275 C235.80274,120.861735 237.498178,121.340456 239.519827,121.978751 C241.537183,122.621358 244.983859,125.65757 249.872729,131.104638" id="path-4"></path>
    </defs>
    <g id="bot-sdk" stroke="none" stroke-width="1" fill="none" fill-rule="evenodd">
        <g id="Group-5" transform="translate(116.000000, 69.000000)">
            <g id="Group-6" transform="translate(0.000000, 447.000000)">
                <g id="Group-4" transform="translate(288.000000, 0.000000)">
                    <path d="M195.709559,55.1523915 C261.114948,61.7459109 313.859184,112.295023 323.361083,177.239414 C351.795717,180.069879 374,204.077941 374,233.273466 C374,261.944986 352.585615,285.613582 324.886029,289.134738 L324.886029,327 C324.886029,357.651804 300.037833,382.5 269.386029,382.5 L92.9044118,382.5 C62.2526081,382.5 37.4044118,357.651804 37.4044118,327 L37.4044118,288.331263 C11.8869493,282.854887 -7,260.145949 -7,233.273466 C-7,205.878719 12.6176746,182.847057 38.8301636,177.928791 C48.0915686,112.414404 101.321087,61.4212724 167.253676,55.0862232 L167.253676,35.0352867 C161.84171,30.8264005 158.507353,24.2885456 158.507353,17.148917 C158.507353,4.64149006 168.641446,-5.5 181.145221,-5.5 C193.648995,-5.5 203.783088,4.64149006 203.783088,17.148917 C203.783088,23.9751077 200.734793,30.2654426 195.709561,34.490561 L195.709559,55.1523915 Z" id="Combined-Shape" stroke="#4C4C4C" stroke-width="15" fill="#EEEEEE"></path>
                    <g id="Group-3" transform="translate(0.500000, 0.000000)">
                        <rect id="Rectangle" fill="#EEEEEE" x="174.253676" y="17.0480339" width="13.4558824" height="67.2842042"></rect>
                        <ellipse id="Oval" stroke="#EEEEEE" stroke-width="4.2" fill="#FAFAFA" cx="180.645221" cy="17.3844549" rx="15.1378676" ry="15.1389459"></ellipse>
                        <ellipse id="Oval" fill="#EEEEEE" cx="48.7775735" cy="233.36675" rx="48.7775735" ry="48.781048"></ellipse>
                        <ellipse id="Oval" fill="#EEEEEE" cx="317.222426" cy="233.36675" rx="48.7775735" ry="48.781048"></ellipse>
                        <path d="M46.5044118,186.471372 L46.5044118,327 C46.5044118,352.34987 67.0545417,372.9 92.4044118,372.9 L268.886029,372.9 C294.235899,372.9 314.786029,352.34987 314.786029,327 L314.786029,186.471372 L314.278343,186.471372 L314.085681,184.584711 C307.132949,116.499705 249.595058,64.2284507 180.645221,64.2284507 C111.695383,64.2284507 54.157492,116.499705 47.2047606,184.584711 L47.0120978,186.471372 L46.5044118,186.471372 Z" id="Combined-Shape" stroke="#EEEEEE" stroke-width="4.2" fill="#FAFAFA"></path>
                        <rect id="Rectangle" fill="#EEEEEE" x="174.253676" y="17.0480339" width="13.4558824" height="67.2842042"></rect>
                        <g id="Oval">
                            <use fill="#EA6609" xlink:href="#path-1"></use>
                            <use fill="#F69A5D" xlink:href="#path-1"></use>
                        </g>
                        <g id="Oval">
                            <use fill="#EA6609" xlink:href="#path-2"></use>
                            <use fill="#F69A5D" xlink:href="#path-2"></use>
                        </g>
                        <g id="Oval">
                            <use fill="#EA6609" xlink:href="#path-3"></use>
                            <use fill="#F69A5D" xlink:href="#path-3"></use>
                        </g>
                        <path d="M45.6689119,184.131737 C52.907561,115.146938 110.911767,61.751497 181.877301,61.751497 C251.793089,61.751497 309.729081,115.146938 316.963298,184.131737 L317.723926,184.131737 L317.723926,327 C317.723926,353.509668 296.233594,375 269.723926,375 L92.9079755,375 C66.3983075,375 44.9079755,353.509668 44.9079755,327 L44.9079755,184.131737 L45.6689119,184.131737 Z" id="Combined-Shape" fill="#FAFAFA"></path>
                        <path d="M180.645221,103.508236 C220.788603,114.532381 240.860294,114.532381 240.860294,103.508236 C240.860294,86.9720185 213.901087,73.5667654 180.645221,73.5667654 C147.389354,73.5667654 120.430147,86.9720185 120.430147,103.508236 C120.430147,114.532381 140.501838,114.532381 180.645221,103.508236 Z" id="Oval" fill="#DADADA"></path>
                        <g id="Group" transform="translate(77.466258, 218.937126)">
                            <ellipse id="Oval" stroke="#FFFFFF" stroke-width="3.6" fill="#FFFFFF" cx="29.190184" cy="29.1916168" rx="30.990184" ry="30.9916168"></ellipse>
                            <ellipse id="Oval" stroke="#FFFFFF" stroke-width="3.6" fill="#FFFFFF" cx="176.263804" cy="29.6334227" rx="30.990184" ry="30.9916168"></ellipse>
                            <ellipse id="Oval" fill="#4C4C4C" cx="29.190184" cy="29.1916168" rx="22.4539877" ry="22.4550898"></ellipse>
                            <ellipse id="Oval" fill="#A5A5A5" cx="30.3128834" cy="16.8413174" rx="10.1042945" ry="10.1047904"></ellipse>
                            <ellipse id="Oval" fill="#4C4C4C" cx="176.263804" cy="29.6334227" rx="22.4539877" ry="22.4550898"></ellipse>
                            <ellipse id="Oval" fill="#A5A5A5" cx="176.263804" cy="17.2831233" rx="10.1042945" ry="10.1047904"></ellipse>
                        </g>
                        <g id="Group-2" transform="translate(148.196319, 278.443114)" fill="#4C4C4C">
                            <path d="M33.6812178,33.6826347 C52.2827103,33.6826347 67.3621994,18.6024055 67.3621994,0 C67.3621994,0 -0.102953049,1.65240202e-13 0,0 C0.000236233157,18.6024055 15.0797253,33.6826347 33.6812178,33.6826347 Z" id="Oval"></path>
                        </g>
                    </g>
                </g>
                <path d="M0,47 L136.852336,47 C157.268638,47 174.335134,49.5620659 188.052336,54.6862745 C201.769539,59.8104831 212.775036,66.5359061 221.069159,74.8627451 C229.363281,83.1895841 235.34453,92.7172666 239.013084,103.446078 C242.681638,114.17489 244.515888,124.983606 244.515888,135.872549 C244.515888,145.160177 242.920888,153.967279 239.730841,162.294118 C236.540794,170.620957 231.995045,177.986896 226.093458,184.392157 C220.191871,190.797418 213.173872,196.161743 205.039252,200.485294 C196.904632,204.808845 187.892884,207.611105 178.003738,208.892157 L178.960748,209.852941 C181.193781,209.532678 186.457279,210.493453 194.751402,212.735294 C203.045524,214.977135 211.738272,219.220557 220.829907,225.465686 C229.921541,231.710816 238.056039,240.357788 245.233645,251.406863 C252.411251,262.455938 256,276.627365 256,293.921569 C256,309.614458 253.129001,323.385562 247.386916,335.235294 C241.644831,347.085027 233.590083,357.093096 223.22243,365.259804 C212.854777,373.426511 200.33403,379.591482 185.659813,383.754902 C170.985596,387.918321 154.7166,390 136.852336,390 L0,390 L0,47 Z M137.137116,203 C166.251525,203 188.00702,196.533281 202.404255,183.59965 C216.80149,170.666019 224,153.660945 224,132.583916 C224,120.129308 221.600497,109.670788 216.801418,101.208042 C212.00234,92.7452957 205.603665,85.879397 197.605201,80.6101399 C189.606737,75.3408827 180.408641,71.5885893 170.010638,69.3531469 C159.612635,67.1177044 148.654904,66 137.137116,66 L21,66 L21,203 L137.137116,203 Z M136.856823,372 C167.496797,372 191.513709,365.508027 208.908277,352.523885 C226.302846,339.539744 235,320.063824 235,294.095541 C235,279.348122 231.967965,267.245801 225.903803,257.788217 C219.839642,248.330632 212.099973,240.876885 202.684564,235.426752 C193.269155,229.976618 182.736822,226.209671 171.087248,224.125796 C159.437675,222.041922 148.027647,221 136.856823,221 L21,221 L21,372 L136.856823,372 Z M617,65.254902 L617,47 L879,47 L879,65.254902 L758.297989,65.254902 L758.297989,390 L737.223035,390 L737.223035,65.254902 L617,65.254902 Z M1259.23771,145.068182 C1258.59766,130.349748 1255.47745,117.551302 1249.87699,106.67246 C1244.27653,95.7936176 1236.67602,86.6747249 1227.07523,79.315508 C1217.47444,71.9562912 1206.03368,66.4369614 1192.75259,62.7573529 C1179.4715,59.0777445 1164.99053,57.2379679 1149.30924,57.2379679 C1139.70845,57.2379679 1129.38776,58.3578319 1118.34686,60.5975936 C1107.30595,62.8373552 1097.06527,66.7568793 1087.62449,72.3562834 C1078.18372,77.9556875 1070.4232,85.4747746 1064.3427,94.9137701 C1058.2622,104.352766 1055.222,116.111338 1055.222,130.18984 C1055.222,143.948375 1058.58222,155.147016 1065.30277,163.786096 C1072.02332,172.425177 1080.82391,179.384332 1091.70481,184.66377 C1102.5857,189.943208 1115.06653,194.182693 1129.14769,197.382353 C1143.22884,200.582012 1157.4698,203.621643 1171.87098,206.501337 C1186.59219,209.38103 1200.91315,212.820613 1214.83429,216.820187 C1228.75543,220.819762 1241.23627,226.259101 1252.27717,233.138369 C1263.31808,240.017637 1272.19867,248.976549 1278.91922,260.015374 C1285.63977,271.0542 1289,284.892519 1289,301.530749 C1289,319.448842 1285.15974,334.487016 1277.47911,346.645722 C1269.79848,358.804428 1260.11783,368.723224 1248.43688,376.402406 C1236.75592,384.081589 1223.79505,389.600919 1209.55388,392.960561 C1195.31271,396.320204 1181.6318,398 1168.51072,398 C1148.34907,398 1129.4678,395.840262 1111.86636,391.520722 C1094.26492,387.201182 1078.90389,380.162036 1065.78281,370.403075 C1052.66173,360.644113 1042.34104,348.085638 1034.82043,332.727273 C1027.29981,317.368907 1023.69957,298.65118 1024.01959,276.573529 L1045.14122,276.573529 C1044.18114,295.45152 1046.90132,311.369588 1053.30185,324.328209 C1059.70237,337.286829 1068.58297,347.925538 1079.9439,356.244652 C1091.30483,364.563767 1104.66573,370.563039 1120.02699,374.242647 C1135.38825,377.922255 1151.54933,379.762032 1168.51072,379.762032 C1178.75156,379.762032 1189.7123,378.482187 1201.39325,375.92246 C1213.07421,373.362732 1223.79493,369.043257 1233.55573,362.963904 C1243.31653,356.884551 1251.47708,348.885522 1258.03762,338.966578 C1264.59815,329.047633 1267.87837,316.569148 1267.87837,301.530749 C1267.87837,287.132281 1264.51815,275.373709 1257.7976,266.254679 C1251.07705,257.13565 1242.19645,249.776543 1231.15555,244.177139 C1220.11464,238.577735 1207.6338,234.098279 1193.71266,230.738636 C1179.79152,227.378994 1165.47056,224.259373 1150.74935,221.379679 C1136.34817,218.499986 1122.10722,215.140394 1108.02606,211.300802 C1093.94491,207.461211 1081.46407,202.261842 1070.58318,195.70254 C1059.70229,189.143238 1050.9017,180.664268 1044.18115,170.265374 C1037.4606,159.866481 1034.10037,146.508103 1034.10037,130.18984 C1034.10037,113.871576 1037.5406,99.8732759 1044.42116,88.1945187 C1051.30173,76.5157616 1060.26233,67.0769077 1071.30324,59.8776738 C1082.34414,52.6784399 1094.74497,47.399081 1108.5061,44.0394385 C1122.26723,40.679796 1135.86814,39 1149.30924,39 C1167.23071,39 1183.95183,40.9997572 1199.47311,44.9993316 C1214.99438,48.9989059 1228.59529,55.2381483 1240.27625,63.717246 C1251.95721,72.1963436 1261.31783,83.155013 1268.35841,96.5935829 C1275.39899,110.032153 1279.39926,126.190191 1280.35933,145.068182 L1259.23771,145.068182 Z M1338,47 L1450.02128,47 C1480.65973,47 1506.1116,51.8038735 1526.37766,61.4117647 C1546.64372,71.0196559 1562.84036,83.8299853 1574.96809,99.8431373 C1587.09581,115.856289 1595.63295,134.111009 1600.57979,154.607843 C1605.52662,175.104678 1608,196.241721 1608,218.019608 C1608,242.359599 1604.88833,265.017869 1598.66489,285.995098 C1592.44146,306.972327 1582.7873,325.146982 1569.70213,340.519608 C1556.61696,355.892234 1540.10116,367.981982 1520.15426,376.789216 C1500.20735,385.596449 1476.51078,390 1449.06383,390 L1338,390 L1338,47 Z M1450.96639,372 C1466.93285,372 1482.97891,369.521968 1499.10504,364.565831 C1515.23117,359.609693 1529.84027,351.296297 1542.93277,339.625392 C1556.02528,327.954487 1566.64282,312.286932 1574.78571,292.622257 C1582.92861,272.957582 1587,248.257202 1587,218.520376 C1587,195.178567 1584.6849,175.194441 1580.05462,158.567398 C1575.42435,141.940356 1569.35718,127.951467 1561.85294,116.600313 C1554.3487,105.24916 1545.72694,96.296271 1535.98739,89.7413793 C1526.24785,83.1864876 1516.18913,78.1504878 1505.81092,74.6332288 C1495.43272,71.1159699 1485.05467,68.7978112 1474.67647,67.6786834 C1464.29827,66.5595555 1454.95802,66 1446.65546,66 L1359,66 L1359,372 L1450.96639,372 Z M1657,47 L1678.07368,47 L1678.07368,244.441176 L1893.12105,47 L1920.42105,47 L1764.28421,189.676471 L1930,390 L1903.65789,390 L1748.95789,204.088235 L1678.07368,268.941176 L1678.07368,390 L1657,390 L1657,47 Z" id="BOT-SDK" fill="#4C4C4C"></path>
            </g>
            <g id="Group-52" transform="translate(451.000000, 0.000000)">
                <path d="M453.822127,278.384064 C450.723993,292.239466 446.719721,301.240955 441.813625,305.392838 C436.898898,309.544721 433.110373,311.306257 430.443735,310.668831 C427.772782,310.031405 425.209702,307.684127 422.758812,303.63561 C420.299291,299.587093 419.764237,292.553872 421.157966,282.540254 C422.543064,272.526636 426.763084,263.038463 433.80508,254.088657 C440.851391,245.138851 446.719721,243.540979 451.4187,249.295041 C456.113364,254.838063 456.915945,264.532969 453.822127,278.384064 M1021.94552,292.928575 C1013.50979,300.711203 1006.4117,305.074125 1000.65125,306.030264 C994.886476,306.995017 990.34715,306.353284 987.037584,304.117986 C983.728019,301.878381 981.005286,297.773875 978.873702,291.808773 C976.737802,285.839364 976.573834,279.663223 978.390427,273.271735 C980.202706,266.871633 981.803552,262.77574 983.19728,260.962521 C984.582379,259.15361 985.061338,256.698658 984.638473,253.610587 C984.206978,250.522517 982.498258,246.848703 979.512314,242.580533 C976.522055,238.320977 972.949277,235.392262 968.785352,233.790083 C964.621426,232.192211 954.69273,235.021866 938.999262,242.26182 C923.310108,249.510388 910.283279,256.595292 899.931717,263.516532 C889.571525,270.44208 881.886602,275.610399 876.872632,279.02149 C871.854346,282.428274 869.770226,282.807284 870.628901,280.141292 C871.478946,277.479608 875.962178,271.350843 884.078596,261.759304 C892.190699,252.172072 900.09137,244.290385 907.776294,238.10563 C915.461217,231.929489 921.91638,227.398595 927.150413,224.521564 C932.38013,221.644533 937.665942,218.823493 943.003534,216.049828 C948.33681,213.284777 953.462969,214.236609 958.377696,218.922552 C963.283792,223.617109 968.785352,224.577555 974.869429,221.80389 C980.953507,219.038839 982.3947,213.60349 979.193008,205.497843 C975.991316,197.405117 972.625656,191.969768 969.104658,189.20041 C965.58366,186.431052 960.884681,184.617834 955.012036,183.765061 C949.139391,182.916595 943.75002,183.123328 938.839608,184.406794 C933.929197,185.896993 925.28204,189.997193 912.902452,196.711701 C900.514235,203.426208 888.825039,211.574925 877.834865,221.166464 C866.836061,230.753696 855.414392,243.058602 843.565543,258.08549 C831.716695,273.108071 824.886131,283.130304 823.069538,288.134959 C822.827901,288.802534 822.655303,289.478722 822.4525,290.146297 C817.731946,293.557388 811.932655,296.102785 804.976958,297.722191 C795.367568,299.961796 788.588783,298.949667 784.640605,294.685804 C780.688113,290.426247 777.96538,285.524958 776.472408,279.981936 C774.979436,274.443221 775.082994,266.186831 776.796029,255.208459 C778.500434,244.234395 779.087267,233.742707 778.556528,223.724782 C778.021474,213.706857 776.524187,206.781309 774.073296,202.943832 C771.613776,199.110662 768.196336,195.966601 763.825293,193.51165 C759.445621,191.069619 754.586989,190.320213 749.253712,191.276352 C743.911806,192.236798 739.057489,193.671006 734.682131,195.591898 C730.302458,197.51279 725.443826,200.549178 720.110549,204.705367 C714.772958,208.852944 709.914326,212.910074 705.538968,216.850917 C701.159295,220.796068 696.732158,225.214981 692.248926,230.11627 C687.765695,235.021866 688.18856,228.410725 693.530466,210.295766 C698.863742,192.180807 710.393285,161.549903 728.114779,118.394438 C745.836273,75.2432798 759.605274,46.9510394 769.430412,33.5263304 C779.24692,20.1016214 780.636333,10.7254291 773.590022,5.39775341 C766.548026,0.07438469 757.469374,-1.31244761 746.371326,1.24156343 C738.686403,11.9012217 733.45237,21.5918201 730.677858,30.3305864 C727.903346,39.0736596 718.293956,63.6834726 701.854002,104.172946 C685.414048,144.66242 670.790687,186.112339 657.979604,228.518398 C652.616123,246.280188 648.391789,260.833313 645.272081,272.255299 C638.113581,277.630351 631.434041,282.070798 625.315444,285.412978 C616.34898,290.318574 608.504404,293.837338 601.777399,295.960656 C595.050394,298.096894 587.313691,299.427737 578.558661,299.961796 C569.80363,300.495856 561.156473,297.244122 552.61719,290.210901 C544.077906,283.17768 541.411268,272.789358 544.61296,259.045936 C547.814652,245.298207 554.753089,234.858203 565.428272,227.713002 C576.103455,220.580721 588.806663,216.691561 603.537898,216.049828 C618.269132,215.412402 625.686529,211.045172 625.794403,202.943832 C625.902277,194.846799 622.21731,188.774024 614.748134,184.725507 C607.274643,180.67699 593.182021,182.701249 572.474583,190.798282 C558.610653,196.513582 547.680888,202.366703 539.560155,208.344726 C538.179372,208.301656 536.500857,208.258587 534.52461,208.219825 C518.61971,207.901111 505.329668,207.849428 494.654485,208.060468 C483.974987,208.275815 477.304077,206.195566 474.637439,201.828336 C471.966485,197.461107 468.713014,194.424719 464.87271,192.714867 C461.028091,191.013629 456.169459,190.694916 450.301128,191.754421 C444.424169,192.826847 439.461978,195.268878 435.405926,199.110662 C432.217179,202.116901 428.096403,206.755467 423.142842,212.841163 C414.51726,213.930817 407.898129,214.107401 403.384692,213.332154 C396.549814,212.164975 391.212222,209.65834 387.371918,205.820863 C383.527299,201.983386 380.325607,198.839325 377.762528,196.392988 C375.199448,193.942343 372.209189,192.667491 368.796064,192.555511 C365.378625,192.452144 362.49624,193.352293 360.148907,195.268878 C357.79726,196.983037 355.665676,198.839325 353.745524,200.867891 C351.821057,202.896456 342.535287,215.201362 325.883901,237.78261 C309.228199,260.376779 299.299502,272.737675 296.097811,274.869607 C292.896119,276.997232 290.760219,275.24431 289.694427,269.593614 C288.62432,263.947226 286.169114,255.639153 282.32881,244.656474 C278.48419,233.686717 274.428139,225.641367 270.160655,220.524731 C265.88454,215.412402 260.762696,213.284777 254.786493,214.128936 C248.805974,214.986016 244.378837,217.97072 241.496451,223.083049 C238.614065,228.199685 239.895605,235.870332 245.34107,246.099297 C250.78222,256.328262 255.425105,266.983613 259.269724,278.065351 C263.114343,289.142782 265.245928,298.096894 265.673108,304.914769 C266.100288,311.73695 267.597575,317.702052 270.160655,322.814381 C272.719419,327.931017 276.775471,331.764187 282.32881,334.322505 C287.877833,336.876516 292.999677,336.454436 297.698656,333.043346 C302.393321,329.636562 306.23794,325.372699 309.228199,320.26037 C312.218458,315.143734 318.406095,305.556502 327.804053,291.49006 C337.197696,277.423618 345.521232,265.915494 352.78329,256.965688 C360.041034,248.011575 366.500512,240.663948 372.157409,234.909886 C377.814307,229.151517 386.034284,224.999634 396.817341,222.441316 C403.466676,220.869286 411.194749,218.965621 419.997245,216.738937 C413.61975,224.810129 409.947729,229.375478 408.985496,230.434983 C408.027577,231.503102 408.506536,231.770132 410.426689,231.236072 C412.351156,230.70632 410.957427,234.32845 406.267078,242.102463 C401.568099,249.880784 398.09888,257.340391 395.855107,264.476978 C393.615649,271.62218 392.334109,281.050055 392.014803,292.769219 C391.695497,304.488382 392.653415,312.697396 394.897189,317.383339 C397.136647,322.073588 400.126906,326.595868 403.863652,330.967404 C407.596082,335.338941 412.454714,338.530378 418.435233,340.558943 C424.411437,342.583202 429.964776,342.475528 435.08662,340.231616 C440.212779,338.000625 445.817897,334.645525 451.901974,330.166315 C457.986052,325.691412 463.107896,320.846113 467.271821,315.621803 C471.435747,310.406108 474.585659,305.448828 476.721559,300.754272 C478.853143,296.068329 480.453989,291.597733 481.524097,287.329563 C482.589889,283.074313 483.228501,276.575152 483.444249,267.836386 C483.655681,259.09762 483.603902,251.16425 483.284596,244.019048 C482.965289,236.882461 482.533795,230.11627 482.003056,223.724782 C481.468002,217.32468 482.749542,213.5475 485.847675,212.371708 C488.941493,211.204529 501.804355,210.295766 524.43626,209.65834 C530.485818,209.486063 535.111443,209.326706 538.408064,209.18027 C535.499789,211.398341 532.962599,213.633639 530.843959,215.890472 C522.727541,224.521564 516.695243,233.312014 512.747065,242.26182 C508.794572,251.211626 506.770861,262.189997 506.662987,275.184013 C506.555113,288.186643 511.038345,299.427737 520.112682,308.911602 C529.187019,318.395468 538.792094,323.456114 548.936538,324.09354 C559.076668,324.730966 567.775604,324.308886 575.037662,322.814381 C582.291091,321.328489 589.656708,318.714181 597.134514,314.984377 C604.60369,311.254574 613.147288,305.392838 622.752364,297.399171 C629.185952,292.049961 636.13302,285.796295 643.520212,278.780302 C640.353039,290.831099 638.765138,298.432835 638.765138,301.559668 C638.765138,307.843483 640.258111,312.697396 643.24837,316.099873 C646.238629,319.51527 650.402555,321.965915 655.740146,323.456114 C661.073423,324.946312 665.556654,320.953786 669.189841,311.46992 C672.818713,301.986055 678.367737,290.426247 685.841227,276.786192 C693.314718,263.150443 704.360987,250.892913 718.988663,240.026522 C733.612023,229.151517 742.68636,225.374337 746.211673,228.677754 C749.732671,231.985479 750.958117,242.26182 749.892324,259.524006 C748.822217,276.786192 749.253712,289.521792 751.173864,297.722191 C753.094016,305.931205 756.722888,312.21502 762.064794,316.582249 C767.398071,320.953786 772.632104,323.085718 777.753948,322.973737 C782.880106,322.870371 789.494923,320.953786 797.611341,317.223982 C805.723444,313.494179 812.605787,309.126949 818.267,304.117986 C819.220604,303.273827 820.070648,302.382292 820.942268,301.503678 C820.963843,301.998975 820.946583,302.502887 820.989732,302.998184 C821.416912,307.899473 822.965979,312.426059 825.632617,316.582249 C828.299255,320.738439 830.754461,323.133094 832.998234,323.774827 C835.242008,324.41656 840.204199,323.723144 847.889122,321.698885 C855.574045,319.67032 864.272982,316.052497 873.990246,310.828187 C883.703195,305.608185 894.166946,298.949667 905.372867,290.848327 C916.583104,282.7556 924.42768,277.798321 928.915227,275.985102 C933.398458,274.176191 937.186983,274.869607 940.280801,278.065351 C943.374619,281.261095 945.350866,284.194116 946.205226,286.8558 C947.059586,289.521792 948.712211,293.621991 951.171732,299.1564 C953.622622,304.699422 956.983967,309.385365 961.260081,313.227149 C965.527566,317.060319 970.066891,319.885667 974.869429,321.698885 C979.671967,323.512104 983.568366,324.468243 986.558625,324.575916 C989.544569,324.68359 993.708495,323.184777 999.046086,320.101013 C1004.38368,317.012943 1011.64142,309.764375 1020.82363,298.363924 C1030.00153,286.963474 1030.37693,285.150255 1021.94552,292.928575" id="Fill-6" fill="#F69A5D"></path>
                <path d="M216.464834,182.572217 C210.378517,180.870779 204.982847,180.548537 200.286455,181.614084 C195.801574,182.679631 189.874969,185.760265 182.506641,190.86458 C175.138314,195.964598 173.536879,198.675728 177.702336,198.989377 C181.159882,199.260061 181.6606,204.179623 179.303771,213.614872 C172.574291,214.280839 167.256318,214.315211 163.444816,213.662134 C156.607423,212.497766 151.267867,209.997167 147.42615,206.168931 C143.580116,202.340695 140.377246,199.204205 137.813223,196.763759 C135.253517,194.314719 132.257841,193.047233 128.84346,192.935523 C125.424763,192.832405 122.541317,193.730386 120.193121,195.642356 C117.840609,197.348091 115.70824,199.204205 113.787381,201.227886 C111.866522,203.24727 102.573019,215.526841 85.9155052,238.053712 C69.2536745,260.593472 59.3256406,272.924603 56.1227705,275.047104 C52.915584,277.173902 50.7788984,275.420905 49.7127139,269.788113 C48.6422129,264.155321 46.1904202,255.867255 42.3443862,244.911023 C38.4983522,233.967682 34.4408079,225.941706 30.1717534,220.837391 C25.8983823,215.737373 20.770337,213.614872 14.791934,214.456998 C8.81353098,215.312013 4.38044804,218.28953 1.49700168,223.389548 C-1.38644467,228.493863 -0.104433344,236.146039 5.34303567,246.350371 C10.7905047,256.554704 15.4350979,267.1801 19.2768153,278.239449 C23.1228493,289.290204 25.2552183,298.222755 25.686872,305.024211 C26.1098926,311.829964 27.6077307,317.780701 30.1717534,322.88072 C32.735776,327.985034 36.7890038,331.804677 42.3443862,334.361131 C47.8954521,336.908992 53.0234974,336.487929 57.7242056,333.085052 C62.4162807,329.686473 66.2623147,325.432877 69.2536745,320.332859 C72.2450342,315.228544 78.4349475,305.660102 87.8363639,291.63183 C97.2334638,277.599261 105.564379,266.11885 112.824793,257.190595 C120.085208,248.258045 126.547063,240.928111 132.206042,235.187905 C137.865021,229.443403 146.088023,225.301518 156.875048,222.749361 C163.056328,221.292827 170.19588,219.53983 178.23327,217.520446 C178.004494,218.306717 177.805933,219.041428 177.538308,219.883554 C173.264937,233.490764 168.728257,249.486861 163.923952,267.876143 C159.119647,286.265425 155.964259,299.919897 154.475054,308.852447 C152.977216,317.780701 153.136927,322.721747 154.954189,323.67988 C156.767135,324.633717 160.02612,324.792689 164.726828,324.156798 C169.423219,323.520907 174.335438,319.323167 179.463483,311.559281 C184.587212,303.803988 189.231805,294.60505 193.397263,283.975358 C197.562721,273.349962 201.991487,259.532221 206.692195,242.522135 C211.388587,225.516346 215.713756,211.698605 219.667704,201.068913 C223.617335,190.434924 222.55115,184.273655 216.464834,182.572217" id="Fill-3" fill="#F69A5D"></path>
                <g id="Fill-1">
                    <use fill="#F37928" xlink:href="#path-4"></use>
                    <use fill-opacity="0.25" fill="#FFFFFF" xlink:href="#path-4"></use>
                </g>
            </g>
        </g>
    </g>
</svg>